<svg height="960" style="" width="1080" xmlns="http://www.w3.org/2000/svg"><path style="fill:#000" d="m539.52344-.00008705a479.99994 480.11713 0 00-479.52344 480.11719705 479.99994 480.11713 0 00430 477.50522v-78.59535l-8.2793 17.13113-5.41015-31.18339a390 390.09522 0 0013.68945 2.01612v-45.43297a345 345.08423 0 01-295-341.44076 345 345.08423 0 01345-345.08423 345 345.08423 0 01345 345.08423 345 345.08423 0 01-275 337.90475v45.85298a390 390.09522 0 007.39844-1.42222l-4.29297 31.3553-3.10547-5.88033v67.17068a479.99994 480.11713 0 00410-474.98116 479.99994 480.11713 0 00-480-480.11719705 479.99994 480.11713 0 00-.47656 0zm-7.0293 60.07911805 10.22266 29.952624a390 390.09522 0 00-2.7168-.009768 390 390.09522 0 00-16.64844.355555zm21.98828.183639 8.63867 30.446884a390 390.09522 0 00-19.35547-.668132zm-43.95508.785347 11.77539 29.376312a390 390.09522 0 00-19.32226 1.359707zm65.9043.547009 7.03516 30.859095a390 390.09522 0 00-19.29688-1.682051zm-87.79102 1.570696 13.29493 28.7199a390 390.09522 0 00-19.22266 2.367766zm109.63868.910379 5.41015 31.183392a390 390.09522 0 00-19.18164-2.688156zm-131.38477 2.350182 14.7793 27.983394a390 390.09522 0 00-19.07227 3.371916zm153.07422 1.271796 3.77148 31.423685a390 390.09522 0 00-19.01562-3.690354zm-174.61914 3.121855 16.22266 27.170695a390 390.09522 0 00-18.86915 4.366301zm196.08789 1.629304 2.12305 31.576072a390 390.09522 0 00-18.79493-4.676928zm-217.375 3.885714 17.62305 26.285718a390 390.09522 0 00-18.61524 5.34896zm238.56641 1.982906.46679 31.646402a390 390.09522 0 00-18.52343-5.65763zm-259.53321 4.639804 18.97461 25.326498a390 390.09522 0 00-18.3125 6.316zm280.38868 2.330647-1.18946 31.626871a390 390.09522 0 00-18.20312-6.61881zm-300.98243 5.380219 20.27149 24.298902a390 390.09522 0 00-17.95313 7.26544zm321.44532 2.672528-2.84375 31.519424a390 390.09522 0 00-17.83204-7.56045zm-341.60743 6.106959 21.51758 23.202935a390 390.09522 0 00-17.55078 8.19732zm361.61914 3.004645-4.48828 31.32796a390 390.09522 0 00-17.41211-8.4845zm-381.29296 6.81612 22.70117 22.04639a390 390.09522 0 00-17.09766 9.10379zm400.80078 3.33089-6.1211 31.05054a390 390.09522 0 00-16.9414-9.3851zm-419.9336 7.50769 23.82422 20.8293a390 390.09522 0 00-16.59765 9.98291zm438.88477 3.64738-7.73633 30.68718a390 390.09522 0 00-16.42969-10.25837zm-457.42578 8.17777 24.88281 19.5536a390 390.09522 0 00-16.05469 10.83859zm475.76758 3.9541-9.33204 30.24175a390 390.09522 0 00-15.87109-11.10427zm-493.66407 8.82636 25.8711 18.22125a390 390.09522 0 00-15.46289 11.66691zm511.34571 4.24909-10.90235 29.71233a390 390.09522 0 00-15.26758-11.92283zm-528.54688 9.44958 26.78711 16.84395a390 390.09522 0 00-14.83203 12.45812zm545.51953 4.5343-12.4414 29.0989a390 390.09522 0 00-14.62305-12.70427zm-561.98242 10.04542 27.63281 15.41783a390 390.09522 0 00-14.16015 13.21806zm578.19922 4.80587-13.94531 28.40927a390 390.09522 0 00-13.93946-13.4525zm-593.87695 10.61782 28.40234 13.94871a390 390.09522 0 00-13.44922 13.94287zm609.29687 5.06373-15.41406 27.63956a390 390.09522 0 00-13.21484-14.16361zm-624.14453 11.15703 29.0918 12.44444a390 390.09522 0 00-12.70117 14.62662zm638.7207 5.30988-16.83984 26.79365a390 390.09522 0 00-12.45508-14.83565zm-652.70117 11.66691 29.70508 10.90501a390 390.09522 0 00-11.91992 15.27131zm666.39649 5.53846-18.2168 25.87742a390 390.09522 0 00-11.66406-15.46667zm-679.46875 12.1475 30.23437 9.33432a390 390.09522 0 00-11.10156 15.87496zm692.24609 5.75336-19.54883 24.88889a390 390.09522 0 00-10.83594-16.05861zm-704.375 12.59292 30.67969 7.73822a390 390.09522 0 00-10.25586 16.4337zm716.19727 5.95262-20.82422 23.83004a390 390.09522 0 00-9.98047-16.60171zm-359.92188 9.21905-282.8418 282.91085h565.6836zm-367.42773 3.78412 31.04296 6.1226a390 390.09522 0 00-9.38281 16.94553zm738.18554 6.13432-22.04101 22.70671a390 390.09522 0 00-9.10157-17.10183zm-748.33008 13.37827 31.32032 4.48937a390 390.09522 0 00-8.48243 17.41636zm758.14844 6.30035-23.19726 21.52284a390 390.09522 0 00-8.19532-17.55507zm-767.25781 13.71624 31.51172 2.84445a390 390.09522 0 00-7.5586 17.83639zm776.03516 6.4508-24.29493 20.27839a390 390.09522 0 00-7.26171-17.95947zm-784.08594 14.01709 31.61914 1.18975a390 390.09522 0 00-6.61719 18.20756zm791.79492 6.58168-25.32031 18.97925a390 390.09522 0 00-6.31446-18.31697zm-767.125 13.81198a390 390.09522 0 00-5.65625 18.52795l-25.98242-18.06105zm742.11914 6.16751 31.62695.99243-26.27929 17.62736a390 390.09522 0 00-5.34766-18.61979zm-748.05664 13.3724a390 390.09522 0 00-4.67578 18.79952l-26.89258-16.67595zm753.66797 6.2652 31.5293 2.64714-27.16407 16.22662a390 390.09522 0 00-4.36523-18.87376zm-758.57031 13.55996a390 390.09522 0 00-3.68946 19.02027l-27.72656-15.24787zm763.14453 6.34334 31.34765 4.29402-27.97656 14.78291a390 390.09522 0 00-3.37109-19.07693zm-767.00586 13.71234a390 390.09522 0 00-2.6875 19.18632l-28.48828-13.77485zm770.5332 6.4039 31.08008 5.92918-28.71289 13.29818a390 390.09522 0 00-2.36719-19.22736zm-773.33984 13.82369a390 390.09522 0 00-1.67969 19.30159l-29.16992-12.26472zm775.80859 6.44884 30.72852 7.54871-29.36914 11.77827a390 390.09522 0 00-1.35938-19.32698zm-777.55078 13.90183a390 390.09522 0 00-.66797 19.3602l-29.77148-10.71942zm778.95703 6.47423 30.29102 9.14482-29.94532 10.22515a390 390.09522 0 00.01-2.71746 390 390.09522 0 00-.35547-16.65251zm-779.63476 13.93505a390 390.09522 0 00-.01 2.71746 390 390.09522 0 00.35547 16.6525l-30.29102-9.14481zm779.9707 6.484 29.77148 10.71941-30.43945 8.64078a390 390.09522 0 00.66797-19.36019zm-779.57813 13.93505a390 390.09522 0 001.35938 19.32698l-30.72852-7.54872zm778.84766 6.47423 29.16992 12.26471-30.85156 7.03688a390 390.09522 0 001.68164-19.30159zm-777.38672 13.89792a390 390.09522 0 002.36719 19.22735l-31.08008-5.92917zm775.58789 6.44493 28.48828 13.77486-31.17578 5.41147a390 390.09522 0 002.6875-19.18633zm-773.06445 13.82174a390 390.09522 0 003.37109 19.07692l-31.34765-4.29401zm770.20508 6.4 27.72656 15.24786-31.41602 3.7724a390 390.09522 0 003.68946-19.02026zm-766.625 13.70647a390 390.09522 0 004.36523 18.87375l-31.5293-2.64713zm762.70898 6.33943 26.89258 16.67595-31.56836 2.12357a390 390.09522 0 004.67578-18.79952zm-758.08008 13.55214a390 390.09522 0 005.34766 18.61979l-31.62695-.99244zm753.12305 6.25935 25.98242 18.06105-31.63867.4669a390 390.09522 0 005.65625-18.52795zm-747.46094 13.36068a390 390.09522 0 006.31446 18.31697l-31.63477.66227zm741.47266 6.16361 25.00195 19.39732-31.61914-1.18779a390 390.09522 0 006.61719-18.20953zm-734.79102 13.13797a390 390.09522 0 007.26367 17.95751l-31.55664 2.31893zm727.78907 6.04836 23.95312 20.67888-31.51172-2.84445a390 390.09522 0 007.5586-17.83443zm-720.10743 12.87228a390 390.09522 0 008.19532 17.55506l-31.39258 3.96777zm712.11329 5.91745 22.83789 21.90574-31.32032-4.48937a390 390.09522 0 008.48243-17.41637zm-703.45118 12.57729a390 390.09522 0 009.10157 17.10184l-31.14258 5.60488zm694.48438 5.7729 21.66015 23.06813-31.04296-6.12259a390 390.09522 0 009.38281-16.94554zm-684.86524 12.24127a390 390.09522 0 009.98047 16.6017l-30.80469 7.22834zm674.94922 5.61074 20.42383 24.17192-30.67969-7.73822a390 390.09522 0 0010.25586-16.4337zm-664.40234 11.87595a390 390.09522 0 0010.83594 16.05861l-30.38477 8.83027zm653.56445 5.43297 19.13281 25.20928-30.23437-9.33432a390 390.09522 0 0011.10156-15.87496zm-642.11914 11.47936a390 390.09522 0 0011.66406 15.46666l-29.88086 10.41075zm630.39453 5.23956 17.78516 26.17632-29.70508-10.90502a390 390.09522 0 0011.91992-15.2713zm-618.07617 11.04957a390 390.09522 0 0012.45508 14.83565l-29.29492 11.958zm605.49023 5.03248 16.39063 27.07106-29.0918-12.44444a390 390.09522 0 0012.70117-14.62662zm-592.33984 10.58853a390 390.09522 0 0013.21484 14.1636l-28.6289 13.47595zm578.92969 4.81171 14.95312 27.89158-28.40234-13.94872a390 390.09522 0 0013.44922-13.94286zm-564.97852 10.10013a390 390.09522 0 0013.93946 13.4525l-27.88477 14.95677zm550.78125 4.57924 13.47266 28.63589-27.63281-15.41782a390 390.09522 0 0014.16015-13.21807zm-536.06836 9.58241a390 390.09522 0 0014.62305 12.70427l-27.06445 16.39464zm521.12305 4.33114 11.95508 29.30207-26.78711-16.84395a390 390.09522 0 0014.83203-12.45812zm-505.68945 9.03932a390 390.09522 0 0015.26758 11.92283l-26.16993 17.7895zm490.03515 4.07326 10.40821 29.88816-25.8711-18.22125a390 390.09522 0 0015.46289-11.66691zm-473.92382 8.47277a390 390.09522 0 0015.87109 11.10427l-25.20313 19.13748zm457.60742 3.80366 8.82812 30.39218-24.88281-19.5536a390 390.09522 0 0016.05469-10.83858zm-440.86133 7.88278a390 390.09522 0 0016.42969 10.25836l-24.16602 20.42882zm423.92187 3.52235 7.22657 30.81221-23.82422-20.8293a390 390.09522 0 0016.59765-9.98291zm-406.58593 7.26935a390 390.09522 0 0016.9414 9.38511l-23.0625 21.66543zm389.07617 3.23125 5.60351 31.15019-22.70117-22.04639a390 390.09522 0 0017.09766-9.1038zm-131.73047.12699a345 345.08423 0 01-.10156.0176 345 345.08423 0 01-1.4375.25006 345 345.08423 0 01-.0469.008 345 345.08423 0 01-1.49218.25396 345 345.08423 0 01-.1211.0195 345 345.08423 0 01-1.41992.23443 345 345.08423 0 01-.99609.16019 345 345.08423 0 01-.01.002 345 345.08423 0 01-1.07422.16996 345 345.08423 0 01-1.00586.15628 345 345.08423 0 01-.99609.15043 345 345.08423 0 01-.54883.082 345 345.08423 0 01-.0625.01 345 345.08423 0 01-4.57617.6486 345 345.08423 0 01-.99805.13284 345 345.08423 0 01-.55078.0723 345 345.08423 0 01-.3457.0449 345 345.08423 0 01-8.96289 1.03932 345 345.08423 0 01-.22461.0215 345 345.08423 0 01-.0293.004v45.21612 8.03907 82.28181a479.99994 480.11713 0 001.83789-.13872 479.99993 480.11712 0 001.80859-.1426 479.99994 480.11713 0 00.0273-.002 479.99993 480.11712 0 001.80859-.15043 479.99994 480.11713 0 00.0273-.002 479.99993 480.11712 0 001.80859-.15629 479.99994 480.11713 0 00.0273-.002 479.99993 480.11712 0 001.80664-.16411 479.99994 480.11713 0 00.0274-.002 479.99993 480.11712 0 001.80664-.17191 479.99994 480.11713 0 00.0273-.002 479.99993 480.11712 0 001.80664-.17778 479.99994 480.11713 0 00.0274-.002 479.99993 480.11712 0 00.69336-.0703 479.99994 480.11713 0 004.80273-.5138 479.99993 480.11712 0 001.80273-.20317 479.99994 480.11713 0 00.0273-.004 479.99993 480.11712 0 001.80273-.21294 479.99994 480.11713 0 00.0274-.004 479.99993 480.11712 0 001.80273-.21684 479.99994 480.11713 0 00.0254-.004 479.99993 480.11712 0 001.08399-.13675 479.99994 480.11713 0 00.084-.0117v-87.47252-3.42662zm-100 2.92845v.004 45.28058 14.83174 75.57705a479.99993 480.11712 0 00.625.0508 479.99994 480.11713 0 00.38086.0313 479.99993 480.11712 0 001.62891.13089 479.99994 480.11713 0 00.25976.0195 479.99993 480.11712 0 001.13867.0879 479.99994 480.11713 0 001.01758.0742 479.99993 480.11712 0 00.93555.0684 479.99994 480.11713 0 00.80469.0567 479.99993 480.11712 0 001.11328.0762 479.99994 480.11713 0 00.92773.0606 479.99993 480.11712 0 00.54297.0352 479.99994 480.11713 0 001.40625.0879 479.99993 480.11712 0 00.48047.0293 479.99994 480.11713 0 001.26758.0742 479.99993 480.11712 0 00.67773.0391 479.99994 480.11713 0 001.49609.0801 479.99994 480.11713 0 001.81836.0918 479.99993 480.11712 0 00.0625.004 479.99994 480.11713 0 001.29102.0625 479.99993 480.11712 0 00.8418.0371 479.99994 480.11713 0 001.50781.0645 479.99994 480.11713 0 001.8418.0723 479.99994 480.11713 0 001.56445.0566 479.99993 480.11712 0 00.60742.0195 479.99994 480.11713 0 00.54883.0195 479.99993 480.11712 0 00.21289.006v-61.85299-28.22564-45.04809a345 345.08423 0 01-3.12109-.15044 345 345.08423 0 01-3.11719-.17777 345 345.08423 0 01-1.5586-.0996 345 345.08423 0 01-14.0039-1.21513 345 345.08423 0 01-3.19922-.3598zm-139.4707 3.5829a390 390.09522 0 0017.41211 8.4845l-21.90039 22.84347zm353.16406 2.93236 3.9668 31.40024-21.51758-23.20292a390 390.09522 0 0017.55078-8.19732zm-334.79688 5.98779a390 390.09522 0 0017.83008 7.56045l-20.67383 23.95896zm316.28321 2.6276 2.31836 31.56435-20.27344-24.30086a390 390.09522 0 0017.95508-7.26349zm-297.47657 5.3177a390 390.09522 0 0018.20508 6.61881l-19.39258 25.00805zm278.53907 2.31502.66211 31.64249-18.97461-25.32649a390 390.09522 0 0018.3125-6.316zm-259.33789 4.6359a390 390.09522 0 0018.52343 5.65763l-18.05664 25.98876zm240.02539 1.99462-.99219 31.63468-17.62305-26.28571a390 390.09522 0 0018.61524-5.34897zm-220.49024 3.94433a390 390.09522 0 0018.79493 4.67692l-16.67188 26.89914zm200.85743 1.66837-2.64649 31.537-16.22266-27.1707a390 390.09522 0 0018.86915-4.3663zm-181.03711 3.23516a390 390.09522 0 0019.01562 3.69036l-15.24414 27.73333z" style=""/></svg>