<svg height="960" style="" width="1080" xmlns="http://www.w3.org/2000/svg"><path style="fill:#fff" d="m539.52344.00005944a480.0001 480.11699 0 00-479.5236 480.11704056 480.0001 480.11699 0 00430.00014 477.50508v-78.59535l-8.2793 17.13113-5.41015-31.18338a390.00013 390.0951 0 0013.68945 2.01613v-45.43296a345.00011 345.08412 0 01-295.00009-341.44065 345.00011 345.08412 0 01345.00011-345.08413 345.00011 345.08412 0 01345.00011 345.08413 345.00011 345.08412 0 01-275.00009 337.90463v45.85298a390.00013 390.0951 0 007.39845-1.42221l-4.29298 31.35528-3.10547-5.88032v67.17065a480.0001 480.11699 0 00410.00018-474.98101 480.0001 480.11699 0 00-480.0002-480.11704056 480.0001 480.11699 0 00-.47656 0zm-7.0293 60.07909356 10.22266 29.952619a390.00013 390.0951 0 00-2.7168-.01 390.00013 390.0951 0 00-16.64845.355551zm21.98828.183639 8.63869 30.446881a390.00013 390.0951 0 00-19.35549-.668141zm-43.95508.78535 11.77538 29.376301a390.00013 390.0951 0 00-19.32226 1.359709zm65.90432.547009 7.03515 30.859081a390.00013 390.0951 0 00-19.29688-1.682049zm-87.79106 1.57069 13.29494 28.719901a390.00013 390.0951 0 00-19.22267 2.36776zm109.63872.91038 5.41015 31.18339a390.00013 390.0951 0 00-19.18165-2.688159zm-131.38481 2.350189 14.7793 27.983382a390.00013 390.0951 0 00-19.07228 3.371919zm153.07427 1.27179 3.77149 31.42368a390.00013 390.0951 0 00-19.01564-3.69036zm-174.6192 3.121859 16.22266 27.170681a390.00013 390.0951 0 00-18.86915 4.36629zm196.08795 1.629299 2.12305 31.576062a390.00013 390.0951 0 00-18.79493-4.67693zm-217.37506 3.885709 17.62305 26.285683a390.00013 390.0951 0 00-18.61525 5.34899zm238.56648 1.98291.46679 31.646383a390.00013 390.0951 0 00-18.52344-5.65763zm-259.5333 4.639798 18.97462 25.326485a390.00013 390.0951 0 00-18.31251 6.316zm280.38878 2.330649-1.18946 31.626836a390.00013 390.0951 0 00-18.20313-6.61879zm-300.98253 5.380219 20.27149 24.298887a390.00013 390.0951 0 00-17.95312 7.26543zm321.44542 2.672529-2.84375 31.519388a390.00013 390.0951 0 00-17.83204-7.56043zm-341.60754 6.106958 21.51759 23.2029a390.00013 390.0951 0 00-17.55078 8.19732zm361.61926 3.00461-4.48828 31.32798a390.00013 390.0951 0 00-17.41212-8.48451zm-381.29309 6.81614 22.70119 22.04638a390.00013 390.0951 0 00-17.09767 9.1038zm400.80092 3.33089-6.1211 31.05053a390.00013 390.0951 0 00-16.9414-9.38509zm-419.93374 7.50767 23.82423 20.82931a390.00013 390.0951 0 00-16.59765 9.98289zm438.88491 3.64738-7.73633 30.68717a390.00013 390.0951 0 00-16.42969-10.25835zm-457.42593 8.17778 24.88282 19.55359a390.00013 390.0951 0 00-16.0547 10.83859zm475.76774 3.95409-9.33204 30.24175a390.00013 390.0951 0 00-15.8711-11.10427zm-493.66422 8.82637 25.87109 18.22124a390.00013 390.0951 0 00-15.46289 11.6669zm511.34587 4.24909-10.90236 29.71232a390.00013 390.0951 0 00-15.26758-11.92282zm-528.54705 9.44956 26.78712 16.84395a390.00013 390.0951 0 00-14.83205 12.45811zm545.5197 4.53431-12.4414 29.09888a390.00013 390.0951 0 00-14.62306-12.70425zm-561.98261 10.04543 27.63282 15.4178a390.00013 390.0951 0 00-14.16014 13.21808zm578.19942 4.80585-13.94532 28.40927a390.00013 390.0951 0 00-13.93946-13.45251zm-593.87715 10.61782 28.40235 13.94872a390.00013 390.0951 0 00-13.44923 13.94284zm609.29707 5.06372-15.41406 27.63956a390.00013 390.0951 0 00-13.21485-14.1636zm-624.14474 11.15703 29.09181 12.44443a390.00013 390.0951 0 00-12.70116 14.62663zm638.72092 5.30989-16.83985 26.79366a390.00013 390.0951 0 00-12.45508-14.83567zm-652.70139 11.6669 29.70509 10.90502a390.00013 390.0951 0 00-11.91992 15.2713zm666.39671 5.53847-18.2168 25.8774a390.00013 390.0951 0 00-11.66407-15.46665zm-679.46897 12.14749 30.23438 9.33431a390.00013 390.0951 0 00-11.10157 15.87497zm692.24632 5.75336-19.54884 24.88888a390.00013 390.0951 0 00-10.83594-16.05861zm-704.37524 12.59292 30.6797 7.73821a390.00013 390.0951 0 00-10.25586 16.43369zm716.19751 5.95261-20.82423 23.83004a390.00013 390.0951 0 00-9.98047-16.6017zm-727.34984 13.00317 31.04296 6.12259a390.00013 390.0951 0 00-9.38281 16.94554zm738.18577 6.13431-22.04101 22.70671a390.00013 390.0951 0 00-9.10158-17.10182zm-748.33033 13.37827 31.32034 4.48937a390.00013 390.0951 0 00-8.48244 17.41636zm758.1487 6.30035-23.19727 21.52283a390.00013 390.0951 0 00-8.19532-17.55506zm-767.25807 13.71624 31.51173 2.84445a390.00013 390.0951 0 00-7.5586 17.83638zm776.03542 6.45079-24.29494 20.27838a390.00013 390.0951 0 00-7.26171-17.95945zm-784.0862 14.01709 31.61915 1.18975a390.00013 390.0951 0 00-6.61719 18.20756zm791.79518 6.58168-25.32032 18.97924a390.00013 390.0951 0 00-6.31446-18.31697zm-767.12525 13.81197a390.00013 390.0951 0 00-5.65625 18.52795l-25.98243-18.06104zm742.11938 6.16751 31.62696.99243-26.27929 17.62736a390.00013 390.0951 0 00-5.34767-18.61979zm-748.05688 13.37241a390.00013 390.0951 0 00-4.67579 18.79951l-26.89258-16.67594zm753.66822 6.26519 31.52931 2.64714-27.16408 16.22661a390.00013 390.0951 0 00-4.36523-18.87375zm-758.57057 13.55996a390.00013 390.0951 0 00-3.68945 19.02026l-27.72657-15.24787zm763.14479 6.34333 31.34766 4.29403-27.97657 14.78289a390.00013 390.0951 0 00-3.37109-19.07692zm-665.08421 1.80903 282.84189 282.91077 282.84189-282.91077zm-101.92191 11.90331a390.00013 390.0951 0 00-2.6875 19.18632l-28.48829-13.77485zm770.53346 6.4039 31.08009 5.92917-28.7129 13.29817a390.00013 390.0951 0 00-2.36719-19.22734zm-773.3401 13.82367a390.00013 390.0951 0 00-1.67969 19.30158l-29.16993-12.2647zm775.80885 6.44885 30.72853 7.54871-29.36915 11.77825a390.00013 390.0951 0 00-1.35938-19.32696zm-777.55104 13.90182a390.00013 390.0951 0 00-.66797 19.3602l-29.77149-10.71941zm778.95729 6.47422 30.29103 9.14482-29.94533 10.22516a390.00013 390.0951 0 00.01-2.71746 390.00013 390.0951 0 00-.35547-16.65252zm-779.63503 13.93505a390.00013 390.0951 0 00-.01 2.71747 390.00013 390.0951 0 00.35548 16.6525l-30.29103-9.14481zm779.97097 6.48399 29.77149 10.71941-30.43946 8.6408a390.00013 390.0951 0 00.66797-19.36021zm-779.57838 13.93507a390.00013 390.0951 0 001.35937 19.32695l-30.72852-7.54871zm778.84791 6.47422 29.16993 12.26471-30.85157 7.03687a390.00013 390.0951 0 001.68164-19.30158zm-777.38698 13.89792a390.00013 390.0951 0 002.3672 19.22734l-31.0801-5.92918zm775.58815 6.44492 28.48829 13.77485-31.17579 5.41147a390.00013 390.0951 0 002.6875-19.18632zm-773.06471 13.82174a390.00013 390.0951 0 003.3711 19.07692l-31.34767-4.29403zm770.20534 6.4 27.72657 15.24786-31.41603 3.7724a390.00013 390.0951 0 003.68946-19.02026zm-766.62526 13.70646a390.00013 390.0951 0 004.36524 18.87375l-31.52931-2.64714zm762.70924 6.33943 26.89259 16.67594-31.56838 2.12358a390.00013 390.0951 0 004.67579-18.79952zm-758.08034 13.55214a390.00013 390.0951 0 005.34768 18.61977l-31.62698-.99243zm753.1233 6.25934 25.98243 18.06104-31.63868.46691a390.00013 390.0951 0 005.65625-18.52795zm-747.46118 13.36068a390.00013 390.0951 0 006.31446 18.31697l-31.63478.66228zm741.4729 6.16361 25.00196 19.39732-31.61915-1.18779a390.00013 390.0951 0 006.61719-18.20953zm-734.79126 13.13797a390.00013 390.0951 0 007.26367 17.9575l-31.55664 2.31893zm727.78931 6.04835 23.95313 20.67886-31.51173-2.84443a390.00013 390.0951 0 007.5586-17.83443zm-720.10767 12.87228a390.00013 390.0951 0 008.19532 17.55505l-31.39259 3.96778zm712.11353 5.91744 22.8379 21.90574-31.32033-4.48938a390.00013 390.0951 0 008.48243-17.41636zm-703.45142 12.57729a390.00013 390.0951 0 009.10159 17.10184l-31.1426 5.60487zm694.48461 5.77291 21.66016 23.06811-31.04297-6.12258a390.00013 390.0951 0 009.38281-16.94553zm-684.86546 12.24126a390.00013 390.0951 0 009.98047 16.60169l-30.8047 7.22833zm674.94944 5.61074 20.42384 24.17191-30.6797-7.73821a390.00013 390.0951 0 0010.25586-16.4337zm-664.40256 11.87595a390.00013 390.0951 0 0010.83594 16.05861l-30.38478 8.83026zm653.56467 5.43295 19.13281 25.20929-30.23438-9.33432a390.00013 390.0951 0 0011.10157-15.87497zm-642.11936 11.47936a390.00013 390.0951 0 0011.66407 15.46667l-29.88087 10.41073zm630.39474 5.23956 17.78517 26.17631-29.70509-10.90501a390.00013 390.0951 0 0011.91992-15.2713zm-618.07637 11.04957a390.00013 390.0951 0 0012.45508 14.83565l-29.29493 11.95799zm605.49043 5.03248 16.39064 27.07105-29.09181-12.44442a390.00013 390.0951 0 0012.70117-14.62663zm-592.34004 10.58852a390.00013 390.0951 0 0013.21486 14.1636l-28.62891 13.47596zm578.92989 4.81172 14.95312 27.89157-28.40235-13.94872a390.00013 390.0951 0 0013.44923-13.94285zm-564.9787 10.10011a390.00013 390.0951 0 0013.93945 13.45252l-27.88478 14.95676zm550.78142 4.57925 13.47267 28.63588-27.63282-15.4178a390.00013 390.0951 0 0014.16015-13.21808zm-536.06854 9.58242a390.00013 390.0951 0 0014.62306 12.70425l-27.06446 16.39463zm521.12323 4.33113 11.95508 29.30207-26.78712-16.84395a390.00013 390.0951 0 0014.83204-12.45812zm-505.68961 9.03931a390.00013 390.0951 0 0015.26757 11.92282l-26.16994 17.7895zm490.0353 4.07327 10.40821 29.88813-25.8711-18.22123a390.00013 390.0951 0 0015.46289-11.6669zm-473.92398 8.47275a390.00013 390.0951 0 0015.8711 11.10428l-25.20314 19.13747zm457.60758 3.80367 8.82812 30.39217-24.88282-19.55359a390.00013 390.0951 0 0016.0547-10.83858zm-440.86148 7.88278a390.00013 390.0951 0 0016.42969 10.25835l-24.16602 20.42883zm423.92201 3.52235 7.22657 30.8122-23.82423-20.82931a390.00013 390.0951 0 0016.59766-9.98289zm-406.58607 7.26934a390.00013 390.0951 0 0016.94141 9.3851l-23.0625 21.66543zm389.0763 3.23125 5.60352 31.15017-22.70118-22.04637a390.00013 390.0951 0 0017.09766-9.1038zm-131.73051.12699a345.00011 345.08412 0 01-.10156.0176 345.00011 345.08412 0 01-1.4375.25006 345.00011 345.08412 0 01-.0469.008 345.00011 345.08412 0 01-1.49218.25395 345.00011 345.08412 0 01-.1211.0195 345.00011 345.08412 0 01-1.41992.23442 345.00011 345.08412 0 01-.99609.1602 345.00011 345.08412 0 01-.01.002 345.00011 345.08412 0 01-1.07422.16996 345.00011 345.08412 0 01-1.00586.15629 345.00011 345.08412 0 01-.99609.15044 345.00011 345.08412 0 01-.54883.0821 345.00011 345.08412 0 01-.0625.01 345.00011 345.08412 0 01-4.57617.64861 345.00011 345.08412 0 01-.99806.13283 345.00011 345.08412 0 01-.55078.0723 345.00011 345.08412 0 01-.3457.0449 345.00011 345.08412 0 01-8.96289 1.03931 345.00011 345.08412 0 01-.22461.0215 345.00011 345.08412 0 01-.0293.004v45.21611 8.03907 82.28177a480.0001 480.11699 0 001.83789-.1387 480.00009 480.11698 0 001.80859-.14261 480.0001 480.11699 0 00.0273-.002 480.00009 480.11698 0 001.80859-.15041 480.0001 480.11699 0 00.0274-.002 480.00009 480.11698 0 001.80859-.15629 480.0001 480.11699 0 00.0274-.002 480.00009 480.11698 0 001.80664-.16411 480.0001 480.11699 0 00.0274-.002 480.00009 480.11698 0 001.80665-.17192 480.0001 480.11699 0 00.0273-.002 480.00009 480.11698 0 001.80664-.17778 480.0001 480.11699 0 00.0274-.002 480.00009 480.11698 0 00.69336-.0703 480.0001 480.11699 0 004.80273-.51379 480.00009 480.11698 0 001.80273-.20317 480.0001 480.11699 0 00.0274-.004 480.00009 480.11698 0 001.80273-.21294 480.0001 480.11699 0 00.0274-.004 480.00009 480.11698 0 001.80273-.21685 480.0001 480.11699 0 00.0254-.004 480.00009 480.11698 0 001.08399-.13674 480.0001 480.11699 0 00.084-.0117v-87.4725-3.4266zm-100.00002 2.92845v.004 45.28058 14.83172 75.57704a480.00009 480.11698 0 00.62499.0508 480.0001 480.11699 0 00.38086.0313 480.00009 480.11698 0 001.62891.13089 480.0001 480.11699 0 00.25976.0195 480.00009 480.11698 0 001.13867.0879 480.0001 480.11699 0 001.01758.0742 480.00009 480.11698 0 00.93555.0684 480.0001 480.11699 0 00.80469.0566 480.00009 480.11698 0 001.11329.0762 480.0001 480.11699 0 00.92772.0606 480.00009 480.11698 0 00.54297.0352 480.0001 480.11699 0 001.40625.0879 480.00009 480.11698 0 00.48047.0293 480.0001 480.11699 0 001.26758.0742 480.00009 480.11698 0 00.67773.0391 480.0001 480.11699 0 001.49609.0801 480.0001 480.11699 0 001.81836.0918 480.00009 480.11698 0 00.0625.004 480.0001 480.11699 0 001.29102.0625 480.00009 480.11698 0 00.8418.0371 480.0001 480.11699 0 001.50781.0645 480.0001 480.11699 0 001.8418.0723 480.0001 480.11699 0 001.56445.0567 480.00009 480.11698 0 00.60742.0195 480.0001 480.11699 0 00.54883.0195 480.00009 480.11698 0 00.2129.006v-61.85327-28.22563-45.04809a345.00011 345.08412 0 01-3.1211-.15043 345.00011 345.08412 0 01-3.11718-.17778 345.00011 345.08412 0 01-1.55861-.0996 345.00011 345.08412 0 01-14.0039-1.21514 345.00011 345.08412 0 01-3.19921-.35946zm-139.47076 3.5829a390.00013 390.0951 0 0017.41213 8.4845l-21.90041 22.84347zm353.16418 2.93237 3.96681 31.40022-21.5176-23.20291a390.00013 390.0951 0 0017.55079-8.19731zm-334.79699 5.98779a390.00013 390.0951 0 0017.83008 7.56043l-20.67383 23.95896zm316.28331 2.6276 2.31836 31.56432-20.27344-24.30086a390.00013 390.0951 0 0017.95508-7.26346zm-297.47667 5.31769a390.00013 390.0951 0 0018.20509 6.61879l-19.39259 25.00806zm278.53917 2.315.66212 31.6425-18.97463-25.3265a390.00013 390.0951 0 0018.31251-6.316zm-259.33798 4.6359a390.00013 390.0951 0 0018.52344 5.65763l-18.05665 25.98877zm240.02547 1.99463-.99219 31.63466-17.62306-26.28568a390.00013 390.0951 0 0018.61525-5.34898zm-220.49031 3.94432a390.00013 390.0951 0 0018.79494 4.67693l-16.67188 26.89914zm200.8575 1.66839-2.6465 31.53699-16.22266-27.17069a390.00013 390.0951 0 0018.86916-4.3663zm-181.03718 3.23515a390.00013 390.0951 0 0019.01563 3.69036l-15.24415 27.73332z"/></svg>